<svg xmlns="http://www.w3.org/2000/svg" width="512" height="512" viewBox="0 0 512 512">
  <defs>
    <linearGradient id="bg" x1="0%" y1="0%" x2="100%" y2="100%">
      <stop offset="0%" style="stop-color:#6366f1"/>
      <stop offset="50%" style="stop-color:#8b5cf6"/>
      <stop offset="100%" style="stop-color:#ec4899"/>
    </linearGradient>
    <linearGradient id="shine" x1="0%" y1="0%" x2="100%" y2="100%">
      <stop offset="0%" style="stop-color:rgba(255,255,255,0.3)"/>
      <stop offset="100%" style="stop-color:rgba(255,255,255,0)"/>
    </linearGradient>
  </defs>
  <rect width="512" height="512" rx="100" fill="url(#bg)"/>
  <rect width="512" height="256" rx="100" fill="url(#shine)"/>
  <g transform="translate(256,256)">
    <!-- Brain/AI icon -->
    <circle cx="0" cy="-20" r="85" fill="none" stroke="white" stroke-width="6" opacity="0.9"/>
    <path d="M-42,-20 Q-42,-64 0,-64 Q42,-64 42,-20" fill="none" stroke="white" stroke-width="5" opacity="0.8"/>
    <path d="M-32,-20 Q-32,-52 0,-52 Q32,-52 32,-20" fill="none" stroke="white" stroke-width="4" opacity="0.6"/>
    <circle cx="0" cy="-20" r="10" fill="white" opacity="0.9"/>
    <circle cx="-26" cy="-32" r="6.5" fill="white" opacity="0.7"/>
    <circle cx="26" cy="-32" r="6.5" fill="white" opacity="0.7"/>
    <circle cx="-16" cy="-4" r="5" fill="white" opacity="0.6"/>
    <circle cx="16" cy="-4" r="5" fill="white" opacity="0.6"/>
    <!-- Connection lines -->
    <line x1="0" y1="-10" x2="-26" y2="-32" stroke="white" stroke-width="3" opacity="0.4"/>
    <line x1="0" y1="-10" x2="26" y2="-32" stroke="white" stroke-width="3" opacity="0.4"/>
    <line x1="0" y1="-10" x2="-16" y2="-4" stroke="white" stroke-width="3" opacity="0.4"/>
    <line x1="0" y1="-10" x2="16" y2="-4" stroke="white" stroke-width="3" opacity="0.4"/>
    <!-- Sparkle -->
    <path d="M64,-84 L68,-74 L78,-70 L68,-66 L64,-56 L60,-66 L50,-70 L60,-74 Z" fill="white" opacity="0.9"/>
    <path d="M-70,-70 L-72,-64 L-78,-62 L-72,-60 L-70,-54 L-68,-60 L-62,-62 L-68,-64 Z" fill="white" opacity="0.7"/>
  </g>
</svg>
